<svg width="100" height="100" viewBox="0 0 100 100" fill="none" xmlns="http://www.w3.org/2000/svg">
<path d="M55.4375 93.75L50 90.625L62.5 68.75H81.25C82.9076 68.75 84.4973 68.0915 85.6694 66.9194C86.8415 65.7473 87.5 64.1576 87.5 62.5V25C87.5 23.3424 86.8415 21.7527 85.6694 20.5806C84.4973 19.4085 82.9076 18.75 81.25 18.75H18.75C17.0924 18.75 15.5027 19.4085 14.3306 20.5806C13.1585 21.7527 12.5 23.3424 12.5 25V62.5C12.5 64.1576 13.1585 65.7473 14.3306 66.9194C15.5027 68.0915 17.0924 68.75 18.75 68.75H46.875V75H18.75C15.4348 75 12.2554 73.683 9.91117 71.3388C7.56696 68.9946 6.25 65.8152 6.25 62.5V25C6.25 21.6848 7.56696 18.5054 9.91117 16.1612C12.2554 13.817 15.4348 12.5 18.75 12.5H81.25C84.5652 12.5 87.7446 13.817 90.0888 16.1612C92.433 18.5054 93.75 21.6848 93.75 25V62.5C93.75 65.8152 92.433 68.9946 90.0888 71.3388C87.7446 73.683 84.5652 75 81.25 75H66.125L55.4375 93.75Z" fill="white"/>
<path d="M25 31.25H75V37.5H25V31.25Z" fill="white"/>
<path d="M25 50H56.25V56.25H25V50Z" fill="white"/>
</svg>
