<svg width="100" height="100" viewBox="0 0 100 100" fill="none" xmlns="http://www.w3.org/2000/svg">
<g clip-path="url(#clip0)">
<path d="M40.625 100C39.6374 100.005 38.6718 99.7085 37.8572 99.1501C37.0426 98.5917 36.4178 97.7979 36.0664 96.875L28.2851 76.6406C28.1275 76.2329 27.8865 75.8626 27.5774 75.5535C27.2682 75.2444 26.898 75.0033 26.4902 74.8457L6.24998 67.0586C5.32799 66.7047 4.53498 66.0796 3.97559 65.2657C3.41621 64.4519 3.11676 63.4875 3.11676 62.5C3.11676 61.5124 3.41621 60.5481 3.97559 59.7342C4.53498 58.9204 5.32799 58.2952 6.24998 57.9414L26.4844 50.1601C26.8921 50.0025 27.2624 49.7615 27.5715 49.4524C27.8806 49.1432 28.1217 48.773 28.2793 48.3652L36.0664 28.125C36.4202 27.203 37.0454 26.41 37.8592 25.8506C38.6731 25.2912 39.6374 24.9918 40.625 24.9918C41.6125 24.9918 42.5769 25.2912 43.3907 25.8506C44.2046 26.41 44.8297 27.203 45.1836 28.125L52.9648 48.3594C53.1224 48.7671 53.3635 49.1374 53.6726 49.4465C53.9817 49.7556 54.352 49.9967 54.7597 50.1543L74.8769 57.8945C75.8364 58.2502 76.6631 58.8929 77.2443 59.7351C77.8254 60.5774 78.133 61.5783 78.125 62.6015C78.1101 63.5719 77.8043 64.5155 77.2471 65.3101C76.69 66.1047 75.9072 66.7138 75 67.0586L54.7656 74.8398C54.3579 74.9974 53.9876 75.2385 53.6785 75.5476C53.3694 75.8567 53.1283 76.227 52.9707 76.6347L45.1836 96.875C44.8321 97.7979 44.2074 98.5917 43.3928 99.1501C42.5782 99.7085 41.6126 100.005 40.625 100Z" fill="white"/>
<path d="M17.1875 34.375C16.6085 34.375 16.0431 34.1995 15.5658 33.8718C15.0885 33.5441 14.7217 33.0794 14.5137 32.5391L11.2207 23.9766C11.1493 23.7893 11.0392 23.6192 10.8975 23.4775C10.7558 23.3358 10.5857 23.2257 10.3984 23.1543L1.83593 19.8613C1.29566 19.6533 0.831086 19.2864 0.503419 18.8091C0.175753 18.3318 0.000366211 17.7665 0.000366211 17.1875C0.000366211 16.6086 0.175753 16.0432 0.503419 15.5659C0.831086 15.0886 1.29566 14.7217 1.83593 14.5137L10.3984 11.2207C10.5855 11.149 10.7554 11.0388 10.8971 10.8971C11.0387 10.7554 11.149 10.5855 11.2207 10.3984L14.4844 1.91212C14.6684 1.41251 14.9852 0.972512 15.4005 0.639402C15.8159 0.306292 16.3141 0.0926697 16.8418 0.0214935C17.4753 -0.0555178 18.1164 0.0811592 18.6634 0.409851C19.2103 0.738544 19.632 1.24044 19.8613 1.83595L23.1543 10.3984C23.226 10.5855 23.3363 10.7554 23.4779 10.8971C23.6196 11.0388 23.7895 11.149 23.9766 11.2207L32.5391 14.5137C33.0793 14.7217 33.5439 15.0886 33.8716 15.5659C34.1992 16.0432 34.3746 16.6086 34.3746 17.1875C34.3746 17.7665 34.1992 18.3318 33.8716 18.8091C33.5439 19.2864 33.0793 19.6533 32.5391 19.8613L23.9766 23.1543C23.7893 23.2257 23.6192 23.3358 23.4775 23.4775C23.3358 23.6192 23.2257 23.7893 23.1543 23.9766L19.8613 32.5391C19.6533 33.0794 19.2865 33.5441 18.8092 33.8718C18.3319 34.1995 17.7665 34.375 17.1875 34.375Z" fill="white"/>
<path d="M78.1251 50C77.4934 49.9998 76.8767 49.8082 76.3561 49.4505C75.8356 49.0928 75.4356 48.5857 75.209 47.9961L70.7481 36.4004C70.6696 36.1961 70.5491 36.0105 70.3943 35.8557C70.2396 35.701 70.054 35.5804 69.8497 35.502L58.254 31.041C57.6648 30.814 57.1583 30.4139 56.801 29.8934C56.4438 29.3729 56.2526 28.7563 56.2526 28.125C56.2526 27.4937 56.4438 26.8771 56.801 26.3566C57.1583 25.8361 57.6648 25.436 58.254 25.209L69.8497 20.7481C70.054 20.6696 70.2396 20.5491 70.3943 20.3943C70.5491 20.2395 70.6696 20.0539 70.7481 19.8496L75.1758 8.33595C75.378 7.79148 75.7239 7.31198 76.1768 6.94846C76.6298 6.58494 77.1728 6.35099 77.7481 6.27149C78.4394 6.18781 79.1388 6.33742 79.7354 6.69656C80.332 7.05571 80.7915 7.60383 81.0411 8.25391L85.502 19.8496C85.5805 20.0539 85.701 20.2395 85.8558 20.3943C86.0106 20.5491 86.1961 20.6696 86.4004 20.7481L97.9961 25.209C98.5853 25.436 99.0918 25.8361 99.4491 26.3566C99.8063 26.8771 99.9975 27.4937 99.9975 28.125C99.9975 28.7563 99.8063 29.3729 99.4491 29.8934C99.0918 30.4139 98.5853 30.814 97.9961 31.041L86.4004 35.502C86.1961 35.5804 86.0106 35.701 85.8558 35.8557C85.701 36.0105 85.5805 36.1961 85.502 36.4004L81.0411 47.9961C80.8145 48.5857 80.4145 49.0928 79.894 49.4505C79.3734 49.8082 78.7567 49.9998 78.1251 50Z" fill="white"/>
</g>
<defs>
<clipPath id="clip0">
<rect width="100" height="100" rx="20" fill="white"/>
</clipPath>
</defs>
</svg>
